<svg id="visual" viewBox="0 0 960 540" width="960" height="540" xmlns="http://www.w3.org/2000/svg" xmlns:xlink="http://www.w3.org/1999/xlink" version="1.1"><path d="M0 182L137 169L274 218L411 195L549 160L686 144L823 188L960 162L960 0L823 0L686 0L549 0L411 0L274 0L137 0L0 0Z" fill="#0085ff"></path><path d="M0 180L137 120L274 139L411 121L549 163L686 157L823 127L960 114L960 0L823 0L686 0L549 0L411 0L274 0L137 0L0 0Z" fill="#0463d7"></path><path d="M0 106L137 140L274 96L411 85L549 121L686 93L823 91L960 83L960 0L823 0L686 0L549 0L411 0L274 0L137 0L0 0Z" fill="#0043af"></path><path d="M0 99L137 82L274 89L411 79L549 100L686 79L823 103L960 53L960 0L823 0L686 0L549 0L411 0L274 0L137 0L0 0Z" fill="#002184"></path><path d="M0 40L137 40L274 56L411 28L549 32L686 47L823 35L960 26L960 0L823 0L686 0L549 0L411 0L274 0L137 0L0 0Z" fill="#000000"></path></svg>