<svg id="visual" viewBox="0 0 960 540" width="960" height="540" xmlns="http://www.w3.org/2000/svg" xmlns:xlink="http://www.w3.org/1999/xlink" version="1.1"><path d="M0 345L137 378L274 360L411 356L549 346L686 394L823 325L960 342L960 541L823 541L686 541L549 541L411 541L274 541L137 541L0 541Z" fill="#fc9576"></path><path d="M0 360L137 367L274 364L411 383L549 391L686 425L823 401L960 411L960 541L823 541L686 541L549 541L411 541L274 541L137 541L0 541Z" fill="#fe8a67"></path><path d="M0 447L137 411L274 396L411 419L549 397L686 401L823 437L960 406L960 541L823 541L686 541L549 541L411 541L274 541L137 541L0 541Z" fill="#ff7e57"></path><path d="M0 448L137 473L274 433L411 479L549 473L686 481L823 477L960 479L960 541L823 541L686 541L549 541L411 541L274 541L137 541L0 541Z" fill="#ff7247"></path><path d="M0 516L137 516L274 509L411 493L549 497L686 502L823 480L960 481L960 541L823 541L686 541L549 541L411 541L274 541L137 541L0 541Z" fill="#ff6636"></path></svg>