<svg id="visual" viewBox="0 0 960 540" width="960" height="540" xmlns="http://www.w3.org/2000/svg" xmlns:xlink="http://www.w3.org/1999/xlink" version="1.1"><path d="M0 439L14.5 438.8C29 438.7 58 438.3 87.2 443C116.3 447.7 145.7 457.3 174.8 464.7C204 472 233 477 262 480.8C291 484.7 320 487.3 349 487.8C378 488.3 407 486.7 436.2 483.2C465.3 479.7 494.7 474.3 523.8 465.3C553 456.3 582 443.7 611 442.3C640 441 669 451 698 451C727 451 756 441 785.2 442.3C814.3 443.7 843.7 456.3 872.8 463.3C902 470.3 931 471.7 945.5 472.3L960 473L960 541L945.5 541C931 541 902 541 872.8 541C843.7 541 814.3 541 785.2 541C756 541 727 541 698 541C669 541 640 541 611 541C582 541 553 541 523.8 541C494.7 541 465.3 541 436.2 541C407 541 378 541 349 541C320 541 291 541 262 541C233 541 204 541 174.8 541C145.7 541 116.3 541 87.2 541C58 541 29 541 14.5 541L0 541Z" fill="#FF6636" stroke-linecap="round" stroke-linejoin="miter"></path></svg>